<svg version="1.1" id="Layer_1" xmlns="http://www.w3.org/2000/svg" xmlns:xlink="http://www.w3.org/1999/xlink" x="0px" y="0px" viewBox="0 0 500 500" style="width: 229px;" xml:space="preserve" data-imageid="ceo-24" imageName="CEO" class="illustrations_image">
<style type="text/css">
	.st0_ceo-24{fill:#FFFFFF;}
	.st1_ceo-24{fill:#093F68;}
	.st2_ceo-24{fill:#68E1FD;}
	.st3_ceo-24{fill:#FFC9B0;}
	.st4_ceo-24{fill:#725858;}
	.st5_ceo-24{fill:#F56132;}
	.st6_ceo-24{fill:#70CC40;}
	.st7_ceo-24{fill:#FFBC0E;}
	.st8_ceo-24{fill:#DFEAEF;}
</style>
<g id="ceo_ceo-24">
	<path class="st0_ceo-24" d="M50.2,196.8h95.3l0,0v52.6c0,1.3-1,2.3-2.3,2.3H52.5c-1.3,0-2.3-1-2.3-2.3V196.8L50.2,196.8z"/>
	<path class="st1_ceo-24" d="M141.2,253.6H54.5c-3.4,0-6.1-2.7-6.1-6.1v-50.7c0-1,0.8-1.8,1.8-1.8h95.3c1,0,1.8,0.8,1.8,1.8v0v50.7&#10;&#9;&#9;C147.3,250.9,144.6,253.6,141.2,253.6z M52,198.6v48.9c0,1.3,1.1,2.4,2.4,2.4h86.8c1.4,0,2.4-1.1,2.4-2.4v-48.9H52z"/>
	<path class="st2_ceo-24 targetColor" d="M52.5,186.8h90.6c1.3,0,2.3,1,2.3,2.3v7.6l0,0H50.2l0,0v-7.6C50.2,187.8,51.3,186.8,52.5,186.8z" style="fill: rgb(0, 66, 164);"/>
	<path class="st1_ceo-24" d="M145.5,198.6H50.2c-1,0-1.8-0.8-1.8-1.8c0,0,0,0,0,0v-5.7c0-3.4,2.7-6.1,6.1-6.1h86.8c3.4,0,6.1,2.7,6.1,6.1&#10;&#9;&#9;v5.7C147.3,197.8,146.5,198.6,145.5,198.6z M52,195h91.6v-3.9c0-1.4-1.1-2.4-2.4-2.4H54.5c-1.3,0-2.5,1.1-2.5,2.4V195z"/>
	<path class="st1_ceo-24" d="M80,217.8c-0.7-0.9-1.7-1.5-2.7-2c-0.8-0.3-1.7-0.5-2.6-0.5c-1.2,0-2.4,0.2-3.6,0.7c-1,0.5-2,1.1-2.7,2&#10;&#9;&#9;c-0.8,0.8-1.4,1.8-1.8,2.9c-0.4,1.1-0.6,2.3-0.6,3.5c0,1.3,0.2,2.5,0.6,3.8c0.4,1.1,1,2.1,1.8,3c0.8,0.8,1.7,1.5,2.7,2&#10;&#9;&#9;c1.1,0.5,2.3,0.7,3.6,0.7c1,0,2.1-0.2,3-0.7c1.1-0.6,2-1.4,2.7-2.3l3.7,2.6c-1.1,1.5-2.5,2.7-4.2,3.4c-1.7,0.7-3.4,1.1-5.2,1.1&#10;&#9;&#9;c-1.8,0-3.7-0.3-5.4-0.9c-3.2-1.2-5.7-3.7-7-6.8c-0.7-1.7-1-3.5-1-5.4c0-1.9,0.3-3.8,1-5.5c0.6-1.6,1.6-3,2.8-4.2&#10;&#9;&#9;c1.2-1.2,2.6-2.1,4.2-2.7c1.7-0.6,3.5-1,5.4-0.9c1.6,0,3.3,0.3,4.8,0.9c1.6,0.7,3,1.8,4.1,3.1L80,217.8z"/>
	<path class="st1_ceo-24" d="M87.1,211.9h16.7v4.1H91.6v6.2h11.6v4.1H91.6v6.9h12.9v4.1H87.1V211.9z"/>
	<path class="st1_ceo-24" d="M107.6,224.6c0-1.9,0.3-3.8,1-5.5c0.6-1.6,1.6-3,2.8-4.2c1.2-1.2,2.6-2.1,4.2-2.7c1.7-0.6,3.5-1,5.4-0.9&#10;&#9;&#9;c1.8,0,3.7,0.3,5.4,0.9c1.6,0.6,3,1.5,4.2,2.7c1.2,1.2,2.2,2.6,2.8,4.2c0.7,1.8,1,3.6,1,5.5c0,1.8-0.3,3.7-1,5.4&#10;&#9;&#9;c-0.6,1.6-1.6,3-2.8,4.2c-1.2,1.2-2.7,2.1-4.2,2.7c-3.5,1.3-7.3,1.4-10.8,0.1c-3.2-1.2-5.7-3.7-7-6.8&#10;&#9;&#9;C107.9,228.3,107.5,226.5,107.6,224.6z M112.3,224.4c0,1.3,0.2,2.5,0.6,3.8c0.4,1.1,1,2.1,1.8,3c0.8,0.8,1.7,1.5,2.7,2&#10;&#9;&#9;c1.1,0.5,2.3,0.7,3.6,0.7c1.2,0,2.4-0.2,3.6-0.7c1-0.5,2-1.1,2.8-2c0.8-0.9,1.4-1.9,1.8-3c0.4-1.2,0.6-2.5,0.6-3.8&#10;&#9;&#9;c0-1.2-0.2-2.4-0.6-3.5c-0.4-1.1-1-2-1.8-2.9c-0.8-0.8-1.7-1.5-2.8-1.9c-1.1-0.5-2.3-0.7-3.6-0.7c-1.2,0-2.4,0.2-3.6,0.7&#10;&#9;&#9;c-1,0.4-2,1.1-2.7,1.9c-0.8,0.8-1.4,1.8-1.8,2.9C112.5,221.9,112.3,223.1,112.3,224.4z"/>
</g>
<g id="character_ceo-24">
	<rect x="237.8" y="253" class="st3_ceo-24" width="26.6" height="26.1"/>
	<path class="st1_ceo-24" d="M264.4,280.9h-26.6c-1,0-1.8-0.8-1.8-1.8c0,0,0,0,0,0V253c0-1,0.8-1.8,1.8-1.8c0,0,0,0,0,0h26.6&#10;&#9;&#9;c1,0,1.8,0.8,1.8,1.8v0v26.1C266.3,280.1,265.4,280.9,264.4,280.9L264.4,280.9z M239.7,277.2h23v-22.4h-23V277.2z"/>
	<path class="st2_ceo-24 targetColor" d="M239.9,286.3h22.4c38.9,0,70.4,31.5,70.4,70.4v56l0,0H169.5l0,0v-56C169.5,317.9,201.1,286.3,239.9,286.3&#10;&#9;&#9;L239.9,286.3z" style="fill: rgb(0, 66, 164);"/>
	<path class="st1_ceo-24" d="M332.7,414.6H169.5c-1,0-1.8-0.8-1.8-1.8c0,0,0,0,0,0v-52.4c0-41.8,33.9-75.7,75.8-75.8h15.3&#10;&#9;&#9;c41.8,0,75.7,34,75.8,75.8v52.4C334.6,413.8,333.7,414.6,332.7,414.6z M171.4,410.9h159.6v-50.6c0-39.8-32.3-72.1-72.1-72.1h-15.3&#10;&#9;&#9;c-39.8,0-72.1,32.3-72.1,72.1L171.4,410.9z"/>
	<path class="st1_ceo-24" d="M295.1,414.6c-1,0-1.8-0.8-1.8-1.8v-92.9c0.1-1,1-1.8,2-1.7c0.9,0.1,1.6,0.8,1.7,1.7v92.9&#10;&#9;&#9;C297,413.8,296.1,414.6,295.1,414.6z"/>
	<path class="st1_ceo-24" d="M207.1,414.6c-1,0-1.8-0.8-1.8-1.8c0,0,0,0,0,0v-92.9c0-1,0.8-1.8,1.8-1.8c1,0,1.8,0.8,1.8,1.8v92.9&#10;&#9;&#9;C209,413.8,208.1,414.6,207.1,414.6z"/>
	<path class="st4_ceo-24" d="M241.9,87.2h19c33.8,0,61.1,27.4,61.1,61.2v33.5l0,0H180.8l0,0v-33.5C180.8,114.6,208.2,87.2,241.9,87.2&#10;&#9;&#9;L241.9,87.2z"/>
	<path class="st1_ceo-24" d="M322.1,183.7H180.8c-1,0-1.8-0.8-1.8-1.8v0v-33.7c0-34.6,28.1-62.6,62.7-62.7h19.6c34.6,0,62.6,28.1,62.7,62.7&#10;&#9;&#9;v33.8C323.9,182.8,323.1,183.7,322.1,183.7C322.1,183.7,322.1,183.7,322.1,183.7z M182.6,180h137.7v-31.9&#10;&#9;&#9;c-0.1-32.6-26.4-58.9-59-59h-19.6c-32.6,0.1-58.9,26.4-59,59L182.6,180z"/>
	<ellipse class="st3_ceo-24" cx="193.8" cy="186.2" rx="19.7" ry="18.9"/>
	<path class="st1_ceo-24" d="M193.8,207c-11.9,0-21.5-9.3-21.5-20.8s9.6-20.8,21.5-20.8s21.5,9.3,21.5,20.8S205.6,207,193.8,207z&#10;&#9;&#9; M193.8,169.1c-9.9,0-17.9,7.7-17.9,17.1s8,17.1,17.9,17.1s17.9-7.7,17.9-17.1S203.6,169.1,193.8,169.1L193.8,169.1z"/>
	<ellipse class="st3_ceo-24" cx="308.5" cy="186.2" rx="19.7" ry="18.9"/>
	<path class="st1_ceo-24" d="M308.5,207c-11.9,0-21.5-9.3-21.5-20.8s9.6-20.8,21.5-20.8s21.5,9.3,21.5,20.8S320.4,207,308.5,207z&#10;&#9;&#9; M308.5,169.1c-9.9,0-17.9,7.7-17.9,17.1s8,17.1,17.9,17.1s17.9-7.7,17.9-17.1S318.4,169.1,308.5,169.1L308.5,169.1z"/>
	<path class="st3_ceo-24" d="M312.2,166.3v43.5c0,33.7-27.4,61.1-61.1,61.1h0l0,0c-33.7,0-61.1-27.3-61.1-61.1c0,0,0,0,0,0v-43.5&#10;&#9;&#9;c0-68.2,25.4-20.4,61.1-20.4S312.2,98.1,312.2,166.3z"/>
	<path class="st1_ceo-24" d="M251.1,272.6c-34.7,0-62.9-28.2-62.9-62.9v-43.5c0-22.2,2.6-33.3,8.7-37.1c5.9-3.6,13.4,0.2,22.9,4.9&#10;&#9;&#9;c9.2,4.6,19.7,9.9,31.4,9.9s22.2-5.3,31.4-9.9c9.5-4.8,17-8.6,22.9-4.9c6.1,3.8,8.7,14.8,8.7,37.1v43.5&#10;&#9;&#9;C314,244.5,285.9,272.6,251.1,272.6z M202.2,131.4c-1.2,0-2.4,0.3-3.4,0.9c-4.7,2.9-6.9,14-6.9,34v43.5c0,32.7,26.5,59.3,59.3,59.3&#10;&#9;&#9;s59.3-26.5,59.3-59.3v-43.5c0-20-2.3-31.1-6.9-34c-4.1-2.5-10.8,0.8-19.3,5.1c-9.1,4.6-20.5,10.3-33,10.3s-23.9-5.7-33-10.3&#10;&#9;&#9;C211.7,134.1,206.2,131.4,202.2,131.4z"/>
	<path class="st4_ceo-24" d="M312.2,193.9v15.8c0.4,33.7-26.6,61.4-60.3,61.9c-33.7,0.4-61.4-26.6-61.9-60.3c0-0.5,0-1,0-1.6v-15.8&#10;&#9;&#9;c0,22.1,12,42.5,31.2,53.3c3.2-10.6,15.5-23,29.9-23c14.3,0,26.7,12.4,29.9,23C300.3,236.4,312.2,216,312.2,193.9z"/>
	<path class="st1_ceo-24" d="M251.1,272.6c-34.7,0-62.9-28.2-62.9-62.9c0,0,0,0,0,0v-15.8c0-1,0.8-1.8,1.8-1.8s1.8,0.8,1.8,1.8c0,0,0,0,0,0&#10;&#9;&#9;c0,20.7,10.8,39.8,28.4,50.6c4.4-11,16.8-22.2,30.9-22.2s26.5,11.1,30.9,22.2c17.6-10.8,28.4-30,28.4-50.6c0-1,0.8-1.8,1.8-1.8&#10;&#9;&#9;s1.8,0.8,1.8,1.8v15.8C314,244.5,285.9,272.6,251.1,272.6z M192.2,216c3.5,32.6,32.7,56.1,65.3,52.6c27.8-3,49.7-25,52.6-52.8&#10;&#9;&#9;c-5.2,14-15.2,25.6-28.2,32.9c-0.5,0.3-1.1,0.3-1.6,0.1c-0.5-0.2-0.9-0.6-1.1-1.2c-3.1-10.5-15.2-21.7-28.1-21.7&#10;&#9;&#9;s-25,11.2-28.1,21.7c-0.2,0.5-0.5,1-1.1,1.2c-0.5,0.2-1.1,0.2-1.6-0.1C207.4,241.5,197.4,229.9,192.2,216z"/>
	<circle class="st1_ceo-24" cx="222.3" cy="181.6" r="5.8"/>
	<circle class="st1_ceo-24" cx="282.2" cy="181.6" r="5.8"/>
	<path class="st1_ceo-24" d="M232,161.1h-23.9c-1.6,0.1-3-1.1-3.1-2.7s1.1-3,2.7-3.1c0.1,0,0.2,0,0.3,0H232c1.6-0.1,3,1.1,3.1,2.7&#10;&#9;&#9;s-1.1,3-2.7,3.1C232.2,161.2,232.1,161.2,232,161.1z"/>
	<path class="st1_ceo-24" d="M294.2,161.1h-23.9c-1.6-0.1-2.8-1.5-2.7-3.1c0.1-1.5,1.3-2.6,2.7-2.7h23.9c1.6,0.1,2.8,1.5,2.7,3.1&#10;&#9;&#9;C296.8,159.9,295.6,161.1,294.2,161.1z"/>
	<path class="st3_ceo-24" d="M251.1,181.9c0,0,15.3,30.2,7.5,32.8c-4.5,1.5-9.5,0.4-13-2.9"/>
	<path class="st1_ceo-24" d="M254.5,217.2c-3.8-0.1-7.5-1.6-10.2-4.2c-0.7-0.7-0.7-1.9,0.1-2.6c0.7-0.7,1.9-0.7,2.6,0.1&#10;&#9;&#9;c3,2.8,7.3,3.8,11.1,2.5c0.2-0.1,0.4-0.2,0.6-0.7c1.9-4.6-4.6-20.6-9.2-29.6c-0.5-0.9-0.1-2,0.8-2.4c0.9-0.5,2-0.1,2.4,0.8&#10;&#9;&#9;c1.3,2.5,12.4,25,9.3,32.6c-0.5,1.3-1.5,2.3-2.8,2.8C257.7,216.9,256.1,217.2,254.5,217.2z"/>
	<path class="st0_ceo-24" d="M251.1,246.5c-5.1,0-10.1-1.1-14.8-3.2c-0.9-0.5-1.3-1.6-0.8-2.5c0.5-0.9,1.6-1.3,2.5-0.8&#10;&#9;&#9;c0.1,0.1,14.4,7,28-1.4c0.8-0.6,2-0.3,2.5,0.5s0.3,2-0.5,2.5c0,0-0.1,0-0.1,0.1C262.9,244.9,257,246.5,251.1,246.5z"/>
	<path class="st2_ceo-24 targetColor" d="M230.4,276.4h41.4c1.1,0,2,0.9,2,2v7.7c0,1.1-0.9,2-2,2h-41.4c-1.1,0-2-0.9-2-2v-7.7&#10;&#9;&#9;C228.5,277.3,229.3,276.4,230.4,276.4z" style="fill: rgb(0, 66, 164);"/>
	<path class="st1_ceo-24" d="M270.2,289.9h-38.2c-3,0-5.4-2.4-5.4-5.4V280c0-3,2.4-5.4,5.4-5.4h38.2c3,0,5.4,2.4,5.4,5.4v4.5&#10;&#9;&#9;C275.7,287.5,273.2,289.9,270.2,289.9C270.2,289.9,270.2,289.9,270.2,289.9z M232.1,278.2c-1,0-1.8,0.8-1.8,1.8v4.5&#10;&#9;&#9;c0,1,0.8,1.8,1.8,1.8h38.2c1,0,1.8-0.8,1.8-1.8V280c0-1-0.8-1.8-1.8-1.8L232.1,278.2z"/>
</g>
<g id="arch_ceo-24">
	<circle class="st5_ceo-24" cx="96.7" cy="346.4" r="55.6"/>
	<path class="st1_ceo-24" d="M96.7,403.8c-31.7,0-57.4-25.7-57.5-57.4c0-31.7,25.7-57.4,57.4-57.5s57.4,25.7,57.5,57.4c0,0,0,0,0,0&#10;&#9;&#9;C154.1,378.1,128.4,403.8,96.7,403.8z M96.7,292.6c-29.7,0-53.8,24.1-53.8,53.8c0,29.7,24.1,53.8,53.8,53.8s53.8-24.1,53.8-53.8&#10;&#9;&#9;c0,0,0,0,0,0C150.4,316.7,126.4,292.6,96.7,292.6z"/>
	
		<ellipse transform="matrix(3.327794e-02 -0.9994 0.9994 3.327794e-02 -252.7548 431.4693)" class="st0_ceo-24" cx="96.7" cy="346.4" rx="41.7" ry="41.7"/>
	<path class="st1_ceo-24" d="M96.7,389.9c-24.1,0-43.6-19.5-43.6-43.5c0-24.1,19.5-43.6,43.5-43.6c24.1,0,43.6,19.5,43.6,43.5c0,0,0,0,0,0&#10;&#9;&#9;C140.2,370.4,120.7,389.9,96.7,389.9z M96.7,306.5c-22,0-39.9,17.9-39.9,39.9c0,22,17.9,39.9,39.9,39.9s39.9-17.9,39.9-39.9&#10;&#9;&#9;c0,0,0,0,0,0C136.5,324.4,118.7,306.5,96.7,306.5L96.7,306.5z"/>
	<circle class="st5_ceo-24" cx="96.7" cy="346.4" r="28.2"/>
	<path class="st1_ceo-24" d="M96.7,376.5c-16.6,0-30.1-13.5-30.1-30.1s13.5-30.1,30.1-30.1s30.1,13.5,30.1,30.1c0,0,0,0,0,0&#10;&#9;&#9;C126.7,363,113.3,376.4,96.7,376.5z M96.7,320c-14.6,0-26.4,11.8-26.4,26.4c0,14.6,11.8,26.4,26.4,26.4s26.4-11.8,26.4-26.4&#10;&#9;&#9;c0,0,0,0,0,0C123,331.8,111.2,320,96.7,320L96.7,320z"/>
	<circle class="st0_ceo-24" cx="96.7" cy="346.4" r="14.9"/>
	<path class="st1_ceo-24" d="M96.7,363.1c-9.2,0-16.7-7.5-16.7-16.7c0-9.2,7.5-16.7,16.7-16.7s16.7,7.5,16.7,16.7c0,0,0,0,0,0&#10;&#9;&#9;C113.4,355.6,105.9,363.1,96.7,363.1z M96.7,333.3c-7.2,0-13.1,5.8-13.1,13.1c0,7.2,5.8,13.1,13.1,13.1c7.2,0,13.1-5.8,13.1-13.1&#10;&#9;&#9;c0,0,0,0,0,0C109.7,339.2,103.9,333.3,96.7,333.3z"/>
	<polygon class="st0_ceo-24" points="142.9,298.9 141.8,285.4 153.6,273.7 155.2,286.3 &#9;"/>
	<path class="st1_ceo-24" d="M142.9,300.7c-0.2,0-0.4,0-0.6-0.1c-0.7-0.2-1.1-0.9-1.2-1.6l-1.1-13.5c0-0.5,0.1-1.1,0.5-1.4l11.8-11.7&#10;&#9;&#9;c0.7-0.7,1.9-0.7,2.6,0c0.3,0.3,0.5,0.7,0.5,1.1l1.6,12.6c0.1,0.6-0.1,1.1-0.5,1.5l-12.4,12.6C143.9,300.5,143.4,300.7,142.9,300.7&#10;&#9;&#9;z M143.6,286.1l0.7,8.7l8.9-9.1l-1-8.1L143.6,286.1z"/>
	<polygon class="st0_ceo-24" points="143.4,298.2 156.9,299.3 168.6,287.5 156,285.9 &#9;"/>
	<path class="st1_ceo-24" d="M156.9,301.1h-0.2l-13.5-1.1c-1-0.1-1.7-1-1.7-2c0-0.4,0.2-0.8,0.5-1.1l12.6-12.3c0.4-0.4,0.9-0.6,1.5-0.5&#10;&#9;&#9;l12.6,1.6c1,0.1,1.7,1,1.6,2c0,0.4-0.2,0.8-0.5,1.1l-11.7,11.8C157.9,300.9,157.4,301.1,156.9,301.1z M147.5,296.7l8.7,0.7l8.5-8.6&#10;&#9;&#9;l-8.1-1L147.5,296.7z"/>
	<path class="st1_ceo-24" d="M96.7,348.2c-1,0-1.8-0.8-1.8-1.8c0-0.5,0.2-0.9,0.5-1.2l63.3-64.9c0.7-0.7,1.9-0.7,2.6,0&#10;&#9;&#9;c0.7,0.7,0.7,1.9,0,2.6L98,347.7C97.6,348,97.2,348.2,96.7,348.2z"/>
</g>
<g id="money-bag_ceo-24">
	<path class="st6_ceo-24" d="M421.6,312.3c0,0,13.3-24.6,10.2-28.9s-13.9,9.4-17.9,6.7s-5.6-14.1-12.3-11.7s-5.9,13.3-7.9,12.5&#10;&#9;&#9;s-5.4-8.7-9.6-6.5s5.9,27.9,5.9,27.9H421.6z"/>
	<path class="st1_ceo-24" d="M421.6,314.2H390c-0.7,0-1.4-0.5-1.7-1.1c-4.9-12.5-9.8-27.9-5-30.2c4.1-2.1,7.4,2.1,9.4,4.5l0.7,0.9&#10;&#9;&#9;c0.1-0.3,0.1-0.5,0.2-0.8c0.9-3.4,2.3-9,7.5-10.7c5.8-2,8.6,3.4,10.7,7.3c1,1.9,2.1,3.9,3.2,4.6c0.9,0.6,4.9-2.3,6.9-3.6&#10;&#9;&#9;c4.1-3,8.9-6.3,11.5-2.7c3.4,4.7-5.9,23.1-10.1,30.8C422.9,313.8,422.3,314.2,421.6,314.2z M391.2,310.5h29.3&#10;&#9;&#9;c6.5-12.3,11-24,9.8-26c-0.9-0.4-4.7,2.2-6.4,3.5c-4.1,2.9-8,5.7-11,3.7c-1.9-1.2-3.1-3.5-4.4-6c-2.4-4.5-3.8-6.5-6.4-5.6&#10;&#9;&#9;c-3.3,1.1-4.3,5.2-5.1,8.2c-0.6,2.1-0.9,3.6-2.2,4.2c-0.6,0.3-1.3,0.3-1.9,0.1c-1.2-0.4-2.1-1.6-3.2-3.1c-1.9-2.4-3.4-4.1-4.8-3.6&#10;&#9;&#9;C384,288,386.8,299,391.2,310.5L391.2,310.5z"/>
	<path class="st6_ceo-24" d="M397.7,323.1h17.7c24,0,43.6,19.4,43.6,43.5c0,0,0,0,0,0.1v30c0,8.8-7.2,16-16,16h-72.8c-8.8,0-16-7.2-16-16&#10;&#9;&#9;v-30C354.2,342.6,373.7,323.1,397.7,323.1L397.7,323.1z"/>
	<path class="st1_ceo-24" d="M441.5,414.6h-69.9c-10.6,0-19.3-8.6-19.3-19.3v-29c0-24.8,20.2-45,45-45h18.4c24.8,0,45,20.2,45,45v29&#10;&#9;&#9;C460.7,405.9,452.1,414.5,441.5,414.6z M397.4,325c-22.8,0-41.4,18.5-41.4,41.3v29c0,8.6,7,15.6,15.6,15.6h69.9&#10;&#9;&#9;c8.6,0,15.6-7,15.6-15.6v-29c0-22.8-18.5-41.3-41.4-41.3H397.4z"/>
	<rect x="390" y="312.3" class="st1_ceo-24" width="33.2" height="11"/>
	<path class="st1_ceo-24" d="M423.2,325.2H390c-1,0-1.8-0.8-1.8-1.8v-11c0-1,0.8-1.8,1.8-1.8l0,0h33.2c1,0,1.8,0.8,1.8,1.8l0,0v11&#10;&#9;&#9;C425,324.4,424.2,325.2,423.2,325.2z M391.8,321.6h29.6v-7.4h-29.6V321.6z"/>
	<path class="st1_ceo-24" d="M401.9,400.5v-5.2c-1.9-0.5-3.7-0.9-5.4-1.5c-3.4-1.1-6.4-3.3-8.4-6.3c-1.7-2.6-2.5-5.6-2.4-8.7h10&#10;&#9;&#9;c0.5,3.7,2.3,6.4,6.1,7.5v-13.6c-2-0.6-4-1.1-6-1.8c-2.2-0.6-4.2-1.8-5.8-3.3c-1.7-1.7-2.9-3.9-3.2-6.3c-0.6-2.9-0.4-5.9,0.6-8.8&#10;&#9;&#9;c1.5-4.1,4.7-7.3,8.8-8.7c1.7-0.5,3.4-1,5.1-1.3l0.6-0.1v-6.8h9.4v0.7c0,2,0,3.9,0,5.8c0,0.5,0.1,0.6,0.6,0.7&#10;&#9;&#9;c3.2,0.6,6.2,2,8.8,4.1c2.7,2.2,4.5,5.3,5,8.7c0.2,0.9,0.2,1.9,0.4,2.9h-10.2c0-2.8-1.8-5.4-4.4-6.5v12.7c0.3,0.1,0.7,0.2,1.1,0.3&#10;&#9;&#9;c2.8,0.5,5.4,1.4,8,2.6c3.9,1.7,6.6,5.4,6.9,9.7c0.6,3.9-0.4,7.9-2.6,11.1c-1.9,2.6-4.5,4.6-7.6,5.6c-1.9,0.6-3.9,1.1-5.9,1.6v5&#10;&#9;&#9;L401.9,400.5z M411.3,374.6v11.8c1.5-0.2,3-0.9,4.1-1.8c2.2-1.8,3-6.2-0.2-8.2C414,375.7,412.6,375.1,411.3,374.6z M401.8,362.4&#10;&#9;&#9;V351c-1.2,0.5-2.4,1.1-3.6,1.8c-2.6,1.7-3,6.6,0.3,8.2C399.6,361.6,400.7,362,401.8,362.4z"/>
</g>
<g id="light_ceo-24">
	<ellipse class="st1_ceo-24" cx="401.6" cy="245.9" rx="9.6" ry="7.4"/>
	<path class="st1_ceo-24" d="M401.6,255.1c-6.3,0-11.5-4.1-11.5-9.2s5.1-9.2,11.5-9.2s11.5,4.1,11.5,9.2S407.9,255.1,401.6,255.1z&#10;&#9;&#9; M401.6,240.3c-4.2,0-7.8,2.5-7.8,5.5s3.6,5.5,7.8,5.5s7.8-2.5,7.8-5.5S405.9,240.3,401.6,240.3z"/>
	<path class="st7_ceo-24" d="M430.1,195.1c0-15.8-12.8-28.5-28.5-28.5c-15.8,0-28.5,12.8-28.5,28.5c0,7.6,3,14.8,8.3,20.2&#10;&#9;&#9;c3.6,3.7,6.2,8.4,7.3,13.5l0.2,1h25.3l0.3-1.2c1.3-5.2,3.9-9.9,7.7-13.7C427.3,209.5,430.2,202.5,430.1,195.1z"/>
	<path class="st1_ceo-24" d="M414.3,231.6H389c-0.8,0-1.6-0.6-1.8-1.4l-0.2-1c-1.1-4.8-3.4-9.1-6.8-12.6c-11.8-11.9-11.8-31.1,0-42.9&#10;&#9;&#9;c11.9-11.8,31.1-11.8,42.9,0c11.7,11.7,11.9,30.5,0.4,42.5c-3.5,3.6-6,8-7.2,12.9l-0.3,1.2C415.9,231,415.2,231.6,414.3,231.6z&#10;&#9;&#9; M390.4,227.9h22.5c1.4-5.4,4.2-10.4,8.1-14.3c10.2-10.7,9.8-27.6-0.8-37.8c-10.7-10.2-27.6-9.8-37.8,0.8&#10;&#9;&#9;c-10,10.5-9.9,27.1,0.4,37.3C386.5,217.8,389.1,222.6,390.4,227.9z"/>
	<path class="st0_ceo-24" d="M388.6,229.7h26.1c0.8,0,1.5,0.6,1.5,1.4v3c0,0.8-0.6,1.4-1.5,1.4h-26.1c-0.8,0-1.5-0.6-1.5-1.4v-3&#10;&#9;&#9;C387.1,230.4,387.8,229.7,388.6,229.7z"/>
	<path class="st1_ceo-24" d="M413.5,237.4h-23.7c-2.4,0-4.4-2-4.5-4.4v-0.6c0-2.5,2-4.5,4.5-4.5h23.7c2.5,0,4.5,2,4.5,4.5v0.6&#10;&#9;&#9;C417.9,235.4,415.9,237.4,413.5,237.4z M389.8,231.6c-0.4,0-0.8,0.4-0.8,0.8v0.6c0,0.4,0.4,0.8,0.8,0.8h23.7c0.4,0,0.8-0.4,0.8-0.8&#10;&#9;&#9;v-0.6c0-0.5-0.4-0.8-0.8-0.8l0,0L389.8,231.6z"/>
	<path class="st0_ceo-24" d="M388.6,235.6h26.1c0.8,0,1.5,0.6,1.5,1.4v3c0,0.8-0.6,1.4-1.5,1.4h-26.1c-0.8,0-1.5-0.6-1.5-1.4v-3&#10;&#9;&#9;C387.1,236.2,387.8,235.6,388.6,235.6z"/>
	<path class="st1_ceo-24" d="M413.5,243.3h-23.7c-2.5,0-4.4-2-4.5-4.4v-0.6c0-2.5,2-4.4,4.5-4.4h23.7c2.5,0,4.5,2,4.5,4.4v0.6&#10;&#9;&#9;C417.9,241.3,415.9,243.3,413.5,243.3z M389.8,237.4c-0.4,0-0.8,0.4-0.8,0.8v0.6c0,0.4,0.4,0.8,0.8,0.8h23.7c0.4,0,0.8-0.4,0.8-0.8&#10;&#9;&#9;v-0.6c0-0.4-0.4-0.8-0.8-0.8H389.8z"/>
	<path class="st0_ceo-24" d="M388.6,241.4h26.1c0.8,0,1.5,0.6,1.5,1.4v3c0,0.8-0.6,1.4-1.5,1.4h-26.1c-0.8,0-1.5-0.6-1.5-1.4v-3&#10;&#9;&#9;C387.1,242.1,387.8,241.4,388.6,241.4z"/>
	<path class="st1_ceo-24" d="M413.5,249.1h-23.7c-2.5,0-4.5-2-4.5-4.5v-0.6c0-2.5,2-4.4,4.5-4.4h23.7c2.5,0,4.5,2,4.5,4.4v0.6&#10;&#9;&#9;C417.9,247.1,415.9,249.1,413.5,249.1z M389.8,243.3c-0.4,0-0.8,0.4-0.8,0.8v0.6c0,0.4,0.4,0.8,0.8,0.8h23.7c0.5,0,0.8-0.4,0.8-0.8&#10;&#9;&#9;v0v-0.6c0-0.4-0.4-0.8-0.8-0.8H389.8z"/>
	<path class="st1_ceo-24" d="M396.8,231.6c-0.9,0-1.6-0.7-1.8-1.6l-4.8-35.6c-0.1-0.8,0.3-1.5,1-1.9c0.7-0.3,1.6-0.2,2.1,0.4l8.7,9.4&#10;&#9;&#9;l8.8-11.8c0.6-0.8,1.8-0.9,2.6-0.3c0.5,0.4,0.8,1,0.7,1.6l-4.4,38.1c-0.1,1-1,1.7-2,1.6c-1-0.1-1.7-1-1.6-2l0,0l3.6-31.4l-6.1,8.2&#10;&#9;&#9;c-0.3,0.4-0.8,0.7-1.4,0.7c-0.5,0-1.1-0.2-1.4-0.6l-6.2-6.8l4,29.8c0.1,1-0.6,1.9-1.6,2L396.8,231.6z"/>
	<path class="st8_ceo-24" d="M354.1,218.5c-1,0-1.8-0.8-1.8-1.8c0-0.7,0.4-1.4,1.1-1.7l13-5.5c0.9-0.4,2-0.1,2.4,0.8c0.4,0.9,0.1,2-0.8,2.4&#10;&#9;&#9;c-0.1,0-0.1,0.1-0.2,0.1l-13,5.5C354.6,218.5,354.3,218.5,354.1,218.5z"/>
	<path class="st8_ceo-24" d="M364.5,180.1c-0.3,0-0.6-0.1-0.8-0.2l-12.2-6.4c-0.9-0.5-1.2-1.6-0.8-2.5c0.5-0.9,1.6-1.2,2.5-0.8l0,0&#10;&#9;&#9;l12.2,6.4c0.9,0.5,1.2,1.6,0.8,2.5C365.8,179.8,365.2,180.1,364.5,180.1L364.5,180.1z"/>
	<path class="st8_ceo-24" d="M448,218.5c-0.2,0-0.5,0-0.7-0.1l-13-5.5c-0.9-0.3-1.4-1.4-1.1-2.3c0.3-0.9,1.4-1.4,2.3-1.1&#10;&#9;&#9;c0.1,0,0.1,0,0.2,0.1l13,5.5c0.9,0.4,1.4,1.5,1,2.4c0,0,0,0,0,0C449.4,218.1,448.7,218.5,448,218.5z"/>
	<path class="st8_ceo-24" d="M437.6,180.1c-1,0-1.8-0.8-1.8-1.8c0-0.7,0.4-1.3,1-1.6l12.2-6.4c0.9-0.5,2-0.1,2.5,0.8c0.5,0.9,0.1,2-0.8,2.5&#10;&#9;&#9;l0,0l-12.2,6.4C438.2,180.1,437.9,180.1,437.6,180.1z"/>
	<path class="st8_ceo-24" d="M402.1,160.8c-1,0-1.8-0.8-1.8-1.8c0,0,0,0,0,0v-13.3c0-1,0.8-1.8,1.8-1.8s1.8,0.8,1.8,1.8V159&#10;&#9;&#9;C404,160,403.2,160.8,402.1,160.8C402.2,160.8,402.2,160.8,402.1,160.8z"/>
</g>
</svg>