<svg id="_0520_data_analyzing" data-name="0520_data_analyzing" xmlns="http://www.w3.org/2000/svg" viewBox="0 0 500 500" data-imageid="report-analysis-6-83" imageName="Análisis del informe 6" class="illustrations_image" style="width: 229px;"><defs><style>.cls-1_report-analysis-6-83{fill:#231f20;}.cls-2_report-analysis-6-83{fill:#fff;}.cls-3_report-analysis-6-83{fill:#d1d3d4;}.cls-4_report-analysis-6-83{fill:#68e1fd;}</style></defs><g id="Data_report-analysis-6-83"><path class="cls-1_report-analysis-6-83" d="M116.05,127.62s-11-1.49-12.35,10.6h19.45S122.08,126.71,116.05,127.62Z"/><path class="cls-1_report-analysis-6-83" d="M123.14,138.92H103.69a.68.68,0,0,1-.52-.23.71.71,0,0,1-.18-.54c.43-3.94,1.9-6.92,4.38-8.86a12.62,12.62,0,0,1,8.66-2.36,4.7,4.7,0,0,1,3.6,1c3.46,2.71,4.17,9.94,4.2,10.25a.68.68,0,0,1-.18.53.72.72,0,0,1-.52.23Zm-18.65-1.39h17.86c-.27-1.86-1.18-6.65-3.57-8.52a3.27,3.27,0,0,0-2.63-.69.67.67,0,0,1-.2,0,11.49,11.49,0,0,0-7.73,2.08,10.72,10.72,0,0,0-3.74,7.14Z"/><path class="cls-2_report-analysis-6-83" d="M123.14,145.84s-6.83-3.59-7.1-18.22h30.75A26.4,26.4,0,0,1,123.14,145.84Z"/><path class="cls-1_report-analysis-6-83" d="M123.14,146.54a.76.76,0,0,1-.33-.08c-.29-.15-7.2-4-7.47-18.83a.7.7,0,0,1,.2-.5.71.71,0,0,1,.5-.21h30.75a.72.72,0,0,1,.56.27.7.7,0,0,1,.12.61,27.3,27.3,0,0,1-24.27,18.73h-.06Zm-6.38-18.22c.41,12.16,5.57,16.15,6.55,16.8a25.83,25.83,0,0,0,22.51-16.8Z"/><path class="cls-1_report-analysis-6-83" d="M144.43,108.26S136,107,132.87,118.77s3.15,28.12-9.72,27.07h55.13s-7.83-39.42-33.84-37.58Z"/><path class="cls-1_report-analysis-6-83" d="M124.29,146.59c-.39,0-.79,0-1.2-.05a.7.7,0,0,1,.06-1.39h2.16a5.53,5.53,0,0,0,3.32-1.35c2.46-2.26,2.47-7.3,2.48-12.64,0-4.21,0-8.57,1.08-12.56,3.1-11.62,11.28-11.13,12.25-11,26.3-1.78,34.43,37.74,34.51,38.14a.71.71,0,0,1-.14.58.7.7,0,0,1-.54.26H125.38c-.35,0-.71,0-1.09,0Zm4.9-1.44h48.22c-1.32-5.63-9.88-37.79-32.92-36.19h-.15c-.32,0-7.84-1-10.78,10-1,3.82-1,8.08-1,12.21,0,5.9,0,11-2.93,13.66l-.38.33Z"/><path class="cls-2_report-analysis-6-83" d="M347.3,108.26H144.43C159.67,112.46,159,123,159,123V391.79H357V123c-1.84-11.06-9.72-14.7-9.72-14.7Z"/><path class="cls-1_report-analysis-6-83" d="M357,392.49H159a.7.7,0,0,1-.7-.7V123c0-.45.38-10-14.08-14a.7.7,0,0,1,.18-1.38H347.3a.72.72,0,0,1,.29.06c.33.16,8.23,3.93,10.11,15.22v269a.69.69,0,0,1-.69.7Zm-197.29-1.4H356.32V123c-1.62-9.66-8.18-13.47-9.18-14H148.6c5.39,2.29,8.1,5.44,9.46,7.89a12.23,12.23,0,0,1,1.67,6.15V391.09Z"/><rect class="cls-2_report-analysis-6-83" x="194.88" y="209.22" width="33.01" height="27.2"/><path class="cls-3_report-analysis-6-83" d="M227.89,237.12h-33a.7.7,0,0,1-.7-.7v-27.2a.7.7,0,0,1,.7-.7h33a.7.7,0,0,1,.7.7v27.2A.7.7,0,0,1,227.89,237.12Zm-32.31-1.4h31.61v-25.8H195.58Z"/><rect class="cls-2_report-analysis-6-83" x="248.81" y="186.1" width="33.01" height="50.31"/><path class="cls-3_report-analysis-6-83" d="M281.82,237.12h-33a.7.7,0,0,1-.7-.7V186.11a.7.7,0,0,1,.7-.7h33a.7.7,0,0,1,.7.7v50.31A.7.7,0,0,1,281.82,237.12Zm-32.31-1.4h31.61V186.81H249.51v48.91Z"/><rect class="cls-4_report-analysis-6-83 targetColor" x="302.73" y="166.17" width="33.01" height="70.25" style="fill: rgb(0, 66, 164);"/><path class="cls-3_report-analysis-6-83" d="M327.38,305.07H264.57a.7.7,0,0,1,0-1.4h62.81a.7.7,0,0,1,0,1.4Z"/><path class="cls-3_report-analysis-6-83" d="M327.38,320.25H264.57a.7.7,0,0,1,0-1.4h62.81a.7.7,0,1,1,0,1.4Z"/><path class="cls-3_report-analysis-6-83" d="M311.17,335.44h-46.6a.7.7,0,0,1,0-1.4h46.6a.7.7,0,0,1,0,1.4Z"/><path class="cls-3_report-analysis-6-83" d="M338.37,262.16H264.28a.7.7,0,0,1,0-1.4h74.09a.7.7,0,1,1,0,1.4Z"/><path class="cls-3_report-analysis-6-83" d="M324.52,276.88H264.28a.7.7,0,1,1,0-1.4h60.24a.7.7,0,0,1,0,1.4Z"/><path class="cls-3_report-analysis-6-83" d="M189.72,268.06a40,40,0,0,0-13.53,27.4H193.6a22.39,22.39,0,0,1,4.75-11.41,22.87,22.87,0,0,1,3.68-3.68,22.44,22.44,0,0,1,11.41-4.75V258.21A39.67,39.67,0,0,0,189.72,268.06Z"/><path class="cls-4_report-analysis-6-83 targetColor" d="M255.9,295.46a39.72,39.72,0,0,0-9.84-23.72l-12.31,12.32a22.48,22.48,0,0,1,0,28,22.09,22.09,0,0,1-3.68,3.68,22.48,22.48,0,0,1-28,0,22.93,22.93,0,0,1-3.69-3.68,22.53,22.53,0,0,1-4.75-11.42H176.2a39.62,39.62,0,0,0,9.86,23.72,37.6,37.6,0,0,0,3.68,3.68,39.61,39.61,0,0,0,23.71,9.85c.86.06,1.73.09,2.6.09s1.74,0,2.6-.09a39.67,39.67,0,0,0,23.72-9.85,37.6,37.6,0,0,0,3.68-3.68,39.67,39.67,0,0,0,9.85-23.72c.06-.86.09-1.73.09-2.6S256,296.32,255.9,295.46Z" style="fill: rgb(0, 66, 164);"/><path class="cls-3_report-analysis-6-83" d="M242.38,268.06a39.67,39.67,0,0,0-23.73-9.85v17.41a22.44,22.44,0,0,1,11.42,4.75Z"/><path class="cls-1_report-analysis-6-83" d="M341.52,237.12h-155a.7.7,0,0,1,0-1.4h155a.7.7,0,0,1,0,1.4Z"/><path class="cls-3_report-analysis-6-83" d="M336,148H295a.7.7,0,0,1,0-1.4h41a.7.7,0,0,1,0,1.4Z"/><path class="cls-3_report-analysis-6-83" d="M336,137.71H290.27a.7.7,0,0,1,0-1.4H336a.7.7,0,0,1,0,1.4Z"/><path class="cls-2_report-analysis-6-83" d="M179.8,350.69c4.95,0,4.95,5.6,9.91,5.6s4.95-5.6,9.91-5.6,4.95,5.6,9.91,5.6,4.95-5.6,9.91-5.6,4.95,5.6,9.91,5.6,5-5.6,9.91-5.6,5,5.6,9.91,5.6,5-5.6,9.9-5.6,4.95,5.6,9.91,5.6,4.95-5.6,9.91-5.6,4.95,5.6,9.91,5.6,5-5.6,9.91-5.6,5,5.6,9.91,5.6,5-5.6,9.91-5.6,5,5.6,9.92,5.6,5-5.6,9.92-5.6"/><path class="cls-3_report-analysis-6-83" d="M328.44,357c-2.79,0-4.22-1.61-5.48-3s-2.27-2.56-4.44-2.56-3.22,1.19-4.43,2.56-2.69,3-5.48,3-4.22-1.61-5.48-3-2.27-2.56-4.43-2.56-3.21,1.19-4.43,2.56-2.69,3-5.48,3-4.22-1.61-5.48-3-2.27-2.56-4.43-2.56-3.21,1.19-4.43,2.56-2.69,3-5.48,3-4.22-1.61-5.48-3-2.27-2.56-4.43-2.56-3.21,1.19-4.43,2.56-2.69,3-5.48,3-4.22-1.61-5.48-3-2.27-2.56-4.43-2.56-3.21,1.19-4.43,2.56-2.69,3-5.48,3-4.22-1.61-5.48-3-2.27-2.56-4.43-2.56-3.21,1.19-4.43,2.56-2.69,3-5.48,3-4.22-1.61-5.48-3-2.27-2.56-4.43-2.56-3.21,1.19-4.43,2.56-2.69,3-5.48,3-4.22-1.61-5.48-3-2.27-2.56-4.43-2.56a.7.7,0,0,1,0-1.4c2.79,0,4.22,1.61,5.48,3s2.27,2.56,4.43,2.56,3.21-1.19,4.43-2.56,2.69-3,5.48-3,4.22,1.61,5.48,3,2.27,2.56,4.43,2.56,3.21-1.19,4.43-2.56,2.69-3,5.48-3,4.22,1.61,5.48,3,2.27,2.56,4.43,2.56,3.21-1.19,4.43-2.56,2.69-3,5.48-3,4.22,1.61,5.48,3,2.27,2.56,4.43,2.56,3.21-1.19,4.43-2.56,2.69-3,5.48-3,4.22,1.61,5.48,3,2.27,2.56,4.43,2.56,3.21-1.19,4.43-2.56,2.69-3,5.48-3,4.22,1.61,5.48,3,2.27,2.56,4.43,2.56,3.21-1.19,4.43-2.56,2.69-3,5.48-3,4.22,1.61,5.48,3,2.27,2.56,4.43,2.56,3.22-1.19,4.43-2.56,2.69-3,5.48-3,4.22,1.61,5.49,3,2.27,2.56,4.44,2.56,3.22-1.19,4.44-2.56,2.69-3,5.48-3a.7.7,0,1,1,0,1.4c-2.16,0-3.22,1.19-4.44,2.56S331.24,357,328.44,357Z"/><path class="cls-2_report-analysis-6-83" d="M179.8,366.35c4.95,0,4.95,5.6,9.91,5.6s4.95-5.6,9.91-5.6,4.95,5.6,9.91,5.6,4.95-5.6,9.91-5.6,4.95,5.6,9.91,5.6,5-5.6,9.91-5.6,5,5.6,9.91,5.6,5-5.6,9.9-5.6S264,372,269,372s4.95-5.6,9.91-5.6,4.95,5.6,9.91,5.6,5-5.6,9.91-5.6,5,5.6,9.91,5.6,5-5.6,9.91-5.6,5,5.6,9.92,5.6,5-5.6,9.92-5.6"/><path class="cls-3_report-analysis-6-83" d="M328.44,372.65c-2.79,0-4.22-1.61-5.48-3s-2.27-2.56-4.44-2.56-3.22,1.19-4.43,2.56-2.69,3-5.48,3-4.22-1.61-5.48-3-2.27-2.56-4.43-2.56-3.21,1.19-4.43,2.56-2.69,3-5.48,3-4.22-1.61-5.48-3-2.27-2.56-4.43-2.56-3.21,1.19-4.43,2.56-2.69,3-5.48,3-4.22-1.61-5.48-3-2.27-2.56-4.43-2.56-3.21,1.19-4.43,2.56-2.69,3-5.48,3-4.22-1.61-5.48-3-2.27-2.56-4.43-2.56-3.21,1.19-4.43,2.56-2.69,3-5.48,3-4.22-1.61-5.48-3-2.27-2.56-4.43-2.56-3.21,1.19-4.43,2.56-2.69,3-5.48,3-4.22-1.61-5.48-3-2.27-2.56-4.43-2.56-3.21,1.19-4.43,2.56-2.69,3-5.48,3-4.22-1.61-5.48-3-2.27-2.56-4.43-2.56a.7.7,0,0,1,0-1.4c2.79,0,4.22,1.61,5.48,3s2.27,2.56,4.43,2.56,3.21-1.19,4.43-2.56,2.69-3,5.48-3,4.22,1.61,5.48,3,2.27,2.56,4.43,2.56,3.21-1.19,4.43-2.56,2.69-3,5.48-3,4.22,1.61,5.48,3,2.27,2.56,4.43,2.56,3.21-1.19,4.43-2.56,2.69-3,5.48-3,4.22,1.61,5.48,3,2.27,2.56,4.43,2.56,3.21-1.19,4.43-2.56,2.69-3,5.48-3,4.22,1.61,5.48,3,2.27,2.56,4.43,2.56,3.21-1.19,4.43-2.56,2.69-3,5.48-3,4.22,1.61,5.48,3,2.27,2.56,4.43,2.56,3.21-1.19,4.43-2.56,2.69-3,5.48-3,4.22,1.61,5.48,3,2.27,2.56,4.43,2.56,3.22-1.19,4.43-2.56,2.69-3,5.48-3,4.22,1.61,5.49,3,2.27,2.56,4.44,2.56,3.22-1.19,4.44-2.56,2.69-3,5.48-3a.7.7,0,1,1,0,1.4c-2.16,0-3.22,1.19-4.44,2.56S331.24,372.65,328.44,372.65Z"/></g><g id="Hands_report-analysis-6-83"><path class="cls-2_report-analysis-6-83" d="M362.84,347.4h44.29c-6.62-35.24-15.85-82.42-19.87-93.81C380.65,234.85,357,211.26,357,211.26l.3,56.69s-15.16-23.6-25.26-20.29,12.88,25.46,23.65,51.91c4.72,11.59,6.55,30.37,7.13,47.83Z"/><path class="cls-1_report-analysis-6-83" d="M407.13,348.1H362.84a.7.7,0,0,1-.7-.68c-.72-21.8-3.1-37.82-7.07-47.59-4.46-11-11.13-21.33-16.49-29.66-6.3-9.79-10.85-16.87-9.47-20.74a4,4,0,0,1,2.74-2.45c8.82-2.89,20.82,13,24.77,18.65l-.29-54.38a.71.71,0,0,1,.43-.65.69.69,0,0,1,.76.15c.24.24,23.81,23.92,30.4,42.6,4,11.32,13,57.32,19.9,93.91a.72.72,0,0,1-.15.58.69.69,0,0,1-.54.25Zm-43.61-1.4h42.77c-6.84-36.41-15.75-81.73-19.69-92.88-5.63-15.95-24-35.75-28.87-40.84l.29,55a.7.7,0,0,1-1.29.39c-.15-.23-15-23.11-24.45-20a2.66,2.66,0,0,0-1.86,1.58c-1.14,3.22,3.71,10.77,9.33,19.51,5.39,8.38,12.1,18.81,16.61,29.89,4,9.82,6.41,25.77,7.15,47.39Z"/><path class="cls-1_report-analysis-6-83" d="M367.14,284.51a.69.69,0,0,1-.6-.34c-2.34-3.89-9.74-15.72-9.82-15.84a.7.7,0,0,1,.22-1,.71.71,0,0,1,1,.22c.08.12,7.49,12,9.83,15.86a.7.7,0,0,1-.24,1,.68.68,0,0,1-.36.1Z"/><path class="cls-2_report-analysis-6-83" d="M170.69,250.63l-2.83-2.44a3.85,3.85,0,0,1-.41-5.42l28.86-33.5,8.65,7.46-28.85,33.49A3.85,3.85,0,0,1,170.69,250.63Z"/><path class="cls-1_report-analysis-6-83" d="M173,251.63a6,6,0,0,1-4-1.47l-.5-.43h0a6.08,6.08,0,0,1-.64-8.58l27.85-32.33a.71.71,0,0,1,1-.07l8.65,7.46a.68.68,0,0,1,.24.48.72.72,0,0,1-.17.51l-27.85,32.33a6,6,0,0,1-4.15,2.1l-.46,0Zm-3.55-3,.5.43a4.68,4.68,0,0,0,6.6-.49L204,216.8l-7.59-6.54L169,242.06a4.61,4.61,0,0,0-1.12,3.4,4.73,4.73,0,0,0,1.61,3.2Z"/><rect class="cls-2_report-analysis-6-83" x="191.04" y="190.68" width="41.74" height="18.45" transform="matrix(0.65, -0.76, 0.76, 0.65, -77.85, 230)"/><path class="cls-1_report-analysis-6-83" d="M205.3,222.44a.71.71,0,0,1-.46-.17l-14-12a.7.7,0,0,1-.07-1l27.25-31.63a.68.68,0,0,1,.48-.24.77.77,0,0,1,.51.17l14,12a.7.7,0,0,1,.07,1L205.83,222.2a.68.68,0,0,1-.48.24Zm-13-12.81,12.91,11.13,26.33-30.56-12.91-11.13Z"/><rect class="cls-1_report-analysis-6-83" x="119.42" y="255.91" width="72.58" height="18.45" rx="4.65" transform="translate(-146.8 210.08) rotate(-49.26)"/><path class="cls-1_report-analysis-6-83" d="M138.35,296.67a7.14,7.14,0,0,1-4.69-1.75l-4.11-3.54a7.21,7.21,0,0,1-.75-10.17l38.88-45.13a7.23,7.23,0,0,1,10.17-.76l4.11,3.54a7.23,7.23,0,0,1,.76,10.17l-38.88,45.12a7.16,7.16,0,0,1-4.93,2.48l-.55,0ZM173.14,235a3.24,3.24,0,0,0-.44,0,5.76,5.76,0,0,0-4,2l-38.88,45.13a5.82,5.82,0,0,0,.61,8.2h0l4.11,3.54a5.82,5.82,0,0,0,8.2-.61l38.88-45.12a5.82,5.82,0,0,0-.61-8.2l-4.11-3.54a5.76,5.76,0,0,0-3.79-1.41Z"/><circle class="cls-2_report-analysis-6-83" cx="232.51" cy="176.02" r="48.98"/><path class="cls-1_report-analysis-6-83" d="M232.43,225.7a49.68,49.68,0,0,1-37.56-82.1h0a49.68,49.68,0,1,1,41.33,82c-1.26.09-2.51.14-3.76.14Zm.15-98c-1.21,0-2.43.05-3.66.14a48,48,0,0,0-33,16.63h0a48.28,48.28,0,1,0,36.65-16.76ZM195.4,144.05h0Z"/><circle class="cls-2_report-analysis-6-83" cx="232.51" cy="176.02" r="39.78" transform="matrix(0.16, -0.99, 0.99, 0.16, 21.52, 377.33)"/><path class="cls-1_report-analysis-6-83" d="M232.48,216.49a40.46,40.46,0,0,1-30.64-66.88l.53.46-.53-.46a40.48,40.48,0,1,1,30.64,66.88Zm-29.58-66a39.08,39.08,0,1,0,55.11-4.1,39.12,39.12,0,0,0-55.11,4.1h0Z"/><path class="cls-2_report-analysis-6-83" d="M136.28,369.15c2.26-5,11.12-61.95,13.9-66.71,1.92-3.29,4-7.57,6.72-10.26,2.87-2.83,6.89-4.53,10-7.33,11.93-10.8,24-22.94,27.61-38.63.58-2.53.12-6.18-2.47-6.32a4.64,4.64,0,0,0-2.66,1c-6.41,4.19-11.16,11.19-17.41,15,1.65-1.1,2.13-14.41,3.16-17,2-5.12,5.23-9.85,7.63-14.92,1-2,1.93-4.35,1.1-6.44a5.56,5.56,0,0,0-5.06-3.08,16.14,16.14,0,0,0-6.07,1.4q-11,4.16-21.76,8.91a27.12,27.12,0,0,0-6.62,3.73,28,28,0,0,0-5.33,6.79c-5.47,8.68-21.14,38.37-23.47,45.14-.83,2.4-25.35,72.94-26.62,72.72.16,0,47.38,16,47.38,16Z"/><path class="cls-1_report-analysis-6-83" d="M136.28,369.85a.57.57,0,0,1-.22,0c-16.11-5.44-46.73-15.77-47.35-16a.66.66,0,0,1-.53-.8.71.71,0,0,1,.36-.48c2.29-3.43,23.21-63.31,26.32-72.34,2.3-6.67,17.81-36.18,23.54-45.28a28.4,28.4,0,0,1,5.48-7,28,28,0,0,1,6.79-3.83c7.14-3.15,14.47-6.16,21.79-8.92a16.72,16.72,0,0,1,6.34-1.45c2.16.07,4.76,1.19,5.69,3.52s-.09,4.83-1.11,7-2.17,4.22-3.29,6.25a73.93,73.93,0,0,0-4.32,8.63,43.61,43.61,0,0,0-1.06,6.83,77.51,77.51,0,0,1-1.17,8,64.33,64.33,0,0,0,6.74-6.13,57.33,57.33,0,0,1,8.7-7.56,5.14,5.14,0,0,1,3.08-1.12,3,3,0,0,1,2.32,1.25c1.14,1.51,1.22,4.06.79,5.93-3.66,16-16.28,28.54-27.82,39a36.3,36.3,0,0,1-4.9,3.55,30.66,30.66,0,0,0-5,3.75c-2.09,2.07-3.85,5.2-5.39,8-.42.74-.82,1.47-1.22,2.15-1.45,2.48-4.82,20.85-7.8,37.06-2.68,14.6-5,27.21-6.06,29.58a.7.7,0,0,1-.64.41ZM89.93,352.79c2.44.81,11.55,3.87,45.93,15.48,1.11-3.45,3.47-16.25,5.74-28.67,3.14-17.12,6.4-34.82,8-37.51.39-.67.79-1.39,1.2-2.12,1.59-2.85,3.4-6.07,5.63-8.28a32.53,32.53,0,0,1,5.27-3.93,35.47,35.47,0,0,0,4.72-3.42c11.39-10.31,23.83-22.62,27.4-38.27.34-1.5.31-3.63-.55-4.77a1.64,1.64,0,0,0-1.28-.7,4,4,0,0,0-2.24.9,56.23,56.23,0,0,0-8.48,7.38,51.54,51.54,0,0,1-8.94,7.65.71.71,0,0,1-1-.22.69.69,0,0,1,.2-1c.72-.62,1.36-6.18,1.75-9.51a41.37,41.37,0,0,1,1.15-7.18,76.69,76.69,0,0,1,4.4-8.79c1.11-2,2.27-4.08,3.25-6.17s1.8-4.08,1.08-5.88-2.73-2.59-4.44-2.64a15.16,15.16,0,0,0-5.8,1.36c-7.3,2.76-14.61,5.75-21.72,8.89a26.94,26.94,0,0,0-6.45,3.62,27.29,27.29,0,0,0-5.19,6.63c-5.7,9-21.12,38.38-23.4,45-.68,2-7,20-13.15,37.35-8.73,24.45-11.78,32.28-13.1,34.75Z"/><path class="cls-1_report-analysis-6-83" d="M206.78,175.78l-1.15,3.49h-1.48l3.77-11.09h1.73l3.78,11.09H211.9l-1.19-3.49Zm3.64-1.12-1.09-3.19c-.25-.72-.41-1.38-.58-2h0c-.16.66-.35,1.33-.56,2l-1.09,3.21h3.35Z"/><path class="cls-1_report-analysis-6-83" d="M215,173.46c0-.82,0-1.5-.07-2.16h1.28l.08,1.32h0a2.93,2.93,0,0,1,2.63-1.5c1.1,0,2.81.66,2.81,3.39v4.75h-1.45v-4.59c0-1.28-.48-2.35-1.84-2.35a2.07,2.07,0,0,0-1.94,1.48,2,2,0,0,0-.1.67v4.79h-1.45v-5.81Z"/><path class="cls-1_report-analysis-6-83" d="M228.5,179.27l-.12-1h0a3,3,0,0,1-2.44,1.18,2.26,2.26,0,0,1-2.43-2.29c0-1.92,1.71-3,4.79-3V174a1.64,1.64,0,0,0-1.81-1.84,4,4,0,0,0-2.07.59l-.33-.95a4.92,4.92,0,0,1,2.61-.71c2.44,0,3,1.66,3,3.26v3a11.1,11.1,0,0,0,.13,1.91H228.5Zm-.21-4.06c-1.58,0-3.37.25-3.37,1.79a1.28,1.28,0,0,0,1.37,1.38,2,2,0,0,0,1.92-1.33,1.48,1.48,0,0,0,.08-.46v-1.38Z"/><path class="cls-1_report-analysis-6-83" d="M232,167.59h1.45v11.68H232Z"/><path class="cls-1_report-analysis-6-83" d="M236.44,171.31l1.74,4.7c.18.53.38,1.15.51,1.63h0c.15-.48.31-1.09.51-1.66l1.58-4.67h1.53L240.17,177c-1,2.73-1.74,4.13-2.73,5a4,4,0,0,1-1.78.94l-.36-1.22a4,4,0,0,0,1.27-.71,4.32,4.32,0,0,0,1.22-1.61,1,1,0,0,0,.12-.35,1.11,1.11,0,0,0-.1-.38l-2.94-7.34h1.57Z"/><path class="cls-1_report-analysis-6-83" d="M242.76,178.43l3.6-4.69c.35-.43.67-.81,1-1.23v0h-4.31v-1.17h6.07l0,.9-3.55,4.62c-.33.44-.66.84-1,1.25v0h4.66v1.15h-6.47v-.84Z"/><path class="cls-1_report-analysis-6-83" d="M251.4,175.55a2.54,2.54,0,0,0,2.73,2.76,5.2,5.2,0,0,0,2.2-.41l.25,1a6.46,6.46,0,0,1-2.65.49,3.7,3.7,0,0,1-3.92-4c0-2.4,1.41-4.29,3.73-4.29,2.6,0,3.29,2.29,3.29,3.75a4.58,4.58,0,0,1,0,.67H251.4Zm4.25-1a2.06,2.06,0,0,0-2-2.35,2.4,2.4,0,0,0-2.22,2.35Z"/><path class="cls-1_report-analysis-6-83" d="M258.3,178.42a1,1,0,0,1,1-1,1,1,0,1,1-1,1Z"/><path class="cls-1_report-analysis-6-83" d="M261.71,178.42a1,1,0,0,1,1-1,1,1,0,1,1-1,1Z"/><polygon class="cls-1_report-analysis-6-83" points="142.11 372.63 149.15 317.14 101.65 304.78 81.14 372.63 142.11 372.63"/><path class="cls-1_report-analysis-6-83" d="M142.11,373.33h-61a.72.72,0,0,1-.56-.28.72.72,0,0,1-.11-.62L101,304.58a.69.69,0,0,1,.84-.47l47.5,12.36a.7.7,0,0,1,.52.76l-7,55.49a.7.7,0,0,1-.69.61Zm-60-1.39H141.5l6.89-54.27-46.26-12-20,66.31Z"/><path class="cls-1_report-analysis-6-83" d="M418.86,375.26l-13.55-61.58-45.66,8.82s2.6,35.86,4,52.76Z"/><path class="cls-1_report-analysis-6-83" d="M418.86,376H363.61a.69.69,0,0,1-.69-.64c-1.34-16.71-3.93-52.41-4-52.77a.69.69,0,0,1,.56-.73L405.18,313a.69.69,0,0,1,.81.53l13.55,61.58a.7.7,0,0,1-.68.85Zm-54.6-1.39H418L404.78,314.5l-44.38,8.58c.35,4.76,2.61,35.78,3.86,51.5Z"/></g></svg>